<svg width="375" height="726" viewBox="0 0 375 726" fill="none" xmlns="http://www.w3.org/2000/svg">
<path d="M56.3175 105H62.468V92.983H74.9538V105H81.0902V75.9091H74.9538V87.9119H62.468V75.9091H56.3175V105ZM95.9908 105.426C101.388 105.426 105.025 102.798 105.877 98.75L100.281 98.3807C99.6697 100.043 98.1072 100.909 96.0902 100.909C93.0646 100.909 91.147 98.9062 91.147 95.6534V95.6392H106.005V93.9773C106.005 86.5625 101.516 82.8977 95.7493 82.8977C89.3288 82.8977 85.1669 87.4574 85.1669 94.1903C85.1669 101.108 89.272 105.426 95.9908 105.426ZM91.147 91.8892C91.2749 89.4034 93.1641 87.4148 95.8487 87.4148C98.4766 87.4148 100.295 89.2898 100.309 91.8892H91.147ZM113.338 113.139C117.841 113.139 120.241 110.852 121.463 107.358L129.943 83.2102L123.537 83.1818L118.977 99.2045H118.75L114.233 83.1818H107.869L115.696 105.625L115.341 106.548C114.489 108.523 113.026 108.665 110.895 107.997L109.531 112.528C110.398 112.884 111.804 113.139 113.338 113.139ZM153.903 83.1818H149.798V77.9545H143.746V83.1818H140.763V87.7273H143.746V99.0909C143.718 103.366 146.63 105.483 151.019 105.298C152.582 105.241 153.69 104.929 154.3 104.73L153.349 100.227C153.05 100.284 152.411 100.426 151.843 100.426C150.636 100.426 149.798 99.9716 149.798 98.2955V87.7273H153.903V83.1818ZM164.364 92.3864C164.379 89.5739 166.097 87.9261 168.569 87.9261C171.026 87.9261 172.475 89.5028 172.461 92.1875V105H178.512V91.108C178.526 85.9943 175.515 82.8977 170.969 82.8977C167.66 82.8977 165.444 84.4602 164.45 87.0312H164.194V75.9091H158.313V105H164.364V92.3864ZM193.217 105.426C198.615 105.426 202.251 102.798 203.104 98.75L197.507 98.3807C196.896 100.043 195.334 100.909 193.317 100.909C190.291 100.909 188.374 98.9062 188.374 95.6534V95.6392H203.232V93.9773C203.232 86.5625 198.743 82.8977 192.976 82.8977C186.555 82.8977 182.393 87.4574 182.393 94.1903C182.393 101.108 186.499 105.426 193.217 105.426ZM188.374 91.8892C188.501 89.4034 190.391 87.4148 193.075 87.4148C195.703 87.4148 197.521 89.2898 197.536 91.8892H188.374ZM207.18 105H213.232V92.6562C213.232 89.9716 215.192 88.125 217.862 88.125C218.7 88.125 219.851 88.267 220.419 88.4517V83.0824C219.879 82.9545 219.126 82.8693 218.516 82.8693C216.072 82.8693 214.07 84.2898 213.274 86.9886H213.047V83.1818H207.18V105ZM232.475 105.426C237.873 105.426 241.509 102.798 242.362 98.75L236.765 98.3807C236.154 100.043 234.592 100.909 232.575 100.909C229.549 100.909 227.631 98.9062 227.631 95.6534V95.6392H242.489V93.9773C242.489 86.5625 238.001 82.8977 232.234 82.8977C225.813 82.8977 221.651 87.4574 221.651 94.1903C221.651 101.108 225.756 105.426 232.475 105.426ZM227.631 91.8892C227.759 89.4034 229.648 87.4148 232.333 87.4148C234.961 87.4148 236.779 89.2898 236.793 91.8892H227.631ZM249.975 105.369C251.793 105.369 253.37 103.849 253.384 101.96C253.37 100.099 251.793 98.5795 249.975 98.5795C248.1 98.5795 246.552 100.099 246.566 101.96C246.552 103.849 248.1 105.369 249.975 105.369ZM272.507 75.9091H266.357V105H272.507V75.9091ZM282.525 75.9091H277.979V79.0057C277.979 81.4062 277.127 83.1534 276.175 84.6591L278.846 86.2358C280.849 84.5597 282.525 81.5767 282.525 78.9773V75.9091ZM287.141 105H293.192V91.9034C293.192 89.4886 294.727 87.8835 296.744 87.8835C298.732 87.8835 300.067 89.2472 300.067 91.392V105H305.934V91.6761C305.934 89.4176 307.227 87.8835 309.428 87.8835C311.36 87.8835 312.809 89.0909 312.809 91.5199V105H318.846V90.3267C318.846 85.5966 316.033 82.8977 311.971 82.8977C308.775 82.8977 306.289 84.5312 305.394 87.0312H305.167C304.471 84.5028 302.241 82.8977 299.244 82.8977C296.303 82.8977 294.073 84.4602 293.164 87.0312H292.908V83.1818H287.141V105ZM110.497 127.909V157H116.463V137.994H116.705L124.233 156.858H128.295L135.824 138.065H136.065V157H142.031V127.909H134.446L126.435 147.455H126.094L118.082 127.909H110.497ZM153.207 157.412C156.431 157.412 158.519 156.006 159.585 153.974H159.755V157H165.494V142.284C165.494 137.085 161.09 134.898 156.232 134.898C151.005 134.898 147.567 137.398 146.729 141.375L152.326 141.83C152.738 140.381 154.031 139.315 156.204 139.315C158.263 139.315 159.442 140.352 159.442 142.142V142.227C159.442 143.634 157.951 143.818 154.158 144.188C149.84 144.585 145.962 146.034 145.962 150.906C145.962 155.224 149.045 157.412 153.207 157.412ZM154.94 153.236C153.079 153.236 151.744 152.369 151.744 150.707C151.744 149.003 153.15 148.165 155.281 147.866C156.602 147.682 158.761 147.369 159.485 146.886V149.202C159.485 151.489 157.596 153.236 154.94 153.236ZM170.188 157H176.239V144.656C176.239 141.972 178.2 140.125 180.87 140.125C181.708 140.125 182.859 140.267 183.427 140.452V135.082C182.887 134.955 182.134 134.869 181.523 134.869C179.08 134.869 177.077 136.29 176.282 138.989H176.055V135.182H170.188V157ZM186.555 157H192.607V135.182H186.555V157ZM189.595 132.369C191.399 132.369 192.876 130.991 192.876 129.301C192.876 127.625 191.399 126.247 189.595 126.247C187.805 126.247 186.328 127.625 186.328 129.301C186.328 130.991 187.805 132.369 189.595 132.369ZM203.675 157.412C206.9 157.412 208.988 156.006 210.053 153.974H210.224V157H215.962V142.284C215.962 137.085 211.559 134.898 206.701 134.898C201.474 134.898 198.036 137.398 197.198 141.375L202.795 141.83C203.207 140.381 204.499 139.315 206.673 139.315C208.732 139.315 209.911 140.352 209.911 142.142V142.227C209.911 143.634 208.42 143.818 204.627 144.188C200.309 144.585 196.431 146.034 196.431 150.906C196.431 155.224 199.513 157.412 203.675 157.412ZM205.408 153.236C203.548 153.236 202.212 152.369 202.212 150.707C202.212 149.003 203.619 148.165 205.749 147.866C207.07 147.682 209.229 147.369 209.954 146.886V149.202C209.954 151.489 208.065 153.236 205.408 153.236ZM226.708 144.386C226.722 141.574 228.398 139.926 230.842 139.926C233.271 139.926 234.734 141.517 234.719 144.188V157H240.771V143.108C240.771 138.023 237.788 134.898 233.242 134.898C230.004 134.898 227.66 136.489 226.68 139.031H226.424V135.182H220.657V157H226.708V144.386ZM255.483 157.426C260.881 157.426 264.517 154.798 265.369 150.75L259.773 150.381C259.162 152.043 257.599 152.909 255.582 152.909C252.557 152.909 250.639 150.906 250.639 147.653V147.639H265.497V145.977C265.497 138.562 261.009 134.898 255.241 134.898C248.821 134.898 244.659 139.457 244.659 146.19C244.659 153.108 248.764 157.426 255.483 157.426ZM250.639 143.889C250.767 141.403 252.656 139.415 255.341 139.415C257.969 139.415 259.787 141.29 259.801 143.889H250.639Z" fill="#172B4D"/>
<path d="M59.4016 179.909H53.2511V209H59.4016V179.909ZM69.4194 179.909H64.8739V183.006C64.8739 185.406 64.0217 187.153 63.07 188.659L65.7404 190.236C67.7433 188.56 69.4194 185.577 69.4194 182.977V179.909ZM74.0359 209H80.087V195.903C80.087 193.489 81.6211 191.884 83.6381 191.884C85.6268 191.884 86.962 193.247 86.962 195.392V209H92.8285V195.676C92.8285 193.418 94.1211 191.884 96.3228 191.884C98.2546 191.884 99.7035 193.091 99.7035 195.52V209H105.74V194.327C105.74 189.597 102.928 186.898 98.8654 186.898C95.6694 186.898 93.1836 188.531 92.2887 191.031H92.0614C91.3654 188.503 89.1353 186.898 86.1381 186.898C83.1978 186.898 80.9677 188.46 80.0586 191.031H79.8029V187.182H74.0359V209ZM126 209.412C129.224 209.412 131.312 208.006 132.377 205.974H132.548V209H138.287V194.284C138.287 189.085 133.883 186.898 129.025 186.898C123.798 186.898 120.36 189.398 119.522 193.375L125.119 193.83C125.531 192.381 126.824 191.315 128.997 191.315C131.056 191.315 132.235 192.352 132.235 194.142V194.227C132.235 195.634 130.744 195.818 126.951 196.188C122.633 196.585 118.755 198.034 118.755 202.906C118.755 207.224 121.838 209.412 126 209.412ZM127.733 205.236C125.872 205.236 124.537 204.369 124.537 202.707C124.537 201.003 125.943 200.165 128.074 199.866C129.395 199.682 131.554 199.369 132.278 198.886V201.202C132.278 203.489 130.389 205.236 127.733 205.236ZM170.392 193.403C169.853 189.384 166.614 186.898 161.103 186.898C155.52 186.898 151.841 189.483 151.855 193.688C151.841 196.955 153.901 199.071 158.162 199.923L161.941 200.676C163.844 201.06 164.711 201.756 164.739 202.849C164.711 204.142 163.304 205.065 161.188 205.065C159.029 205.065 157.594 204.142 157.225 202.366L151.273 202.679C151.841 206.855 155.392 209.426 161.174 209.426C166.827 209.426 170.875 206.543 170.89 202.239C170.875 199.085 168.816 197.196 164.583 196.33L160.634 195.534C158.603 195.094 157.85 194.398 157.864 193.347C157.85 192.04 159.327 191.188 161.202 191.188C163.304 191.188 164.554 192.338 164.853 193.744L170.392 193.403ZM184.558 209.426C191.177 209.426 195.297 204.895 195.297 198.176C195.297 191.415 191.177 186.898 184.558 186.898C177.939 186.898 173.819 191.415 173.819 198.176C173.819 204.895 177.939 209.426 184.558 209.426ZM184.586 204.739C181.532 204.739 179.97 201.94 179.97 198.134C179.97 194.327 181.532 191.514 184.586 191.514C187.583 191.514 189.146 194.327 189.146 198.134C189.146 201.94 187.583 204.739 184.586 204.739ZM210.964 187.182H206.632V185.719C206.632 184.241 207.228 183.375 209.004 183.375C209.728 183.375 210.467 183.531 210.95 183.688L212.015 179.142C211.262 178.915 209.6 178.545 207.74 178.545C203.635 178.545 200.581 180.861 200.581 185.605V187.182H197.498V191.727H200.581V209H206.632V191.727H210.964V187.182ZM226.266 187.182H222.161V181.955H216.11V187.182H213.127V191.727H216.11V203.091C216.081 207.366 218.993 209.483 223.382 209.298C224.945 209.241 226.053 208.929 226.664 208.73L225.712 204.227C225.414 204.284 224.775 204.426 224.206 204.426C222.999 204.426 222.161 203.972 222.161 202.295V191.727H226.266V187.182ZM234.512 209H240.904L244.654 195.278H244.924L248.674 209H255.08L261.003 187.182H254.895L251.571 201.756H251.387L247.807 187.182H241.799L238.276 201.841H238.077L234.696 187.182H228.574L234.512 209ZM270.453 209.412C273.677 209.412 275.765 208.006 276.831 205.974H277.001V209H282.74V194.284C282.74 189.085 278.336 186.898 273.478 186.898C268.251 186.898 264.814 189.398 263.975 193.375L269.572 193.83C269.984 192.381 271.277 191.315 273.45 191.315C275.51 191.315 276.689 192.352 276.689 194.142V194.227C276.689 195.634 275.197 195.818 271.404 196.188C267.086 196.585 263.208 198.034 263.208 202.906C263.208 207.224 266.291 209.412 270.453 209.412ZM272.186 205.236C270.325 205.236 268.99 204.369 268.99 202.707C268.99 201.003 270.396 200.165 272.527 199.866C273.848 199.682 276.007 199.369 276.731 198.886V201.202C276.731 203.489 274.842 205.236 272.186 205.236ZM287.434 209H293.485V196.656C293.485 193.972 295.446 192.125 298.116 192.125C298.954 192.125 300.105 192.267 300.673 192.452V187.082C300.133 186.955 299.38 186.869 298.77 186.869C296.326 186.869 294.324 188.29 293.528 190.989H293.301V187.182H287.434V209ZM312.729 209.426C318.127 209.426 321.763 206.798 322.615 202.75L317.019 202.381C316.408 204.043 314.846 204.909 312.828 204.909C309.803 204.909 307.885 202.906 307.885 199.653V199.639H322.743V197.977C322.743 190.562 318.255 186.898 312.488 186.898C306.067 186.898 301.905 191.457 301.905 198.19C301.905 205.108 306.01 209.426 312.729 209.426ZM307.885 195.889C308.013 193.403 309.902 191.415 312.587 191.415C315.215 191.415 317.033 193.29 317.047 195.889H307.885ZM99.6538 261.355C103.176 261.355 105.009 259.324 105.847 257.506H106.103V261H112.069V231.909H106.032V242.847H105.847C105.037 241.071 103.29 238.898 99.6396 238.898C94.8526 238.898 90.8043 242.619 90.8043 250.119C90.8043 257.42 94.6822 261.355 99.6538 261.355ZM101.571 256.54C98.6026 256.54 96.9833 253.898 96.9833 250.091C96.9833 246.312 98.5742 243.713 101.571 243.713C104.512 243.713 106.159 246.199 106.159 250.091C106.159 253.983 104.483 256.54 101.571 256.54ZM126.987 261.426C132.385 261.426 136.021 258.798 136.873 254.75L131.277 254.381C130.666 256.043 129.103 256.909 127.086 256.909C124.061 256.909 122.143 254.906 122.143 251.653V251.639H137.001V249.977C137.001 242.562 132.512 238.898 126.745 238.898C120.325 238.898 116.163 243.457 116.163 250.19C116.163 257.108 120.268 261.426 126.987 261.426ZM122.143 247.889C122.271 245.403 124.16 243.415 126.845 243.415C129.473 243.415 131.291 245.29 131.305 247.889H122.143ZM160.939 239.182H154.533L150.016 254.793H149.789L145.257 239.182H138.865L146.493 261H153.311L160.939 239.182ZM173.237 261.426C178.635 261.426 182.271 258.798 183.123 254.75L177.527 254.381C176.916 256.043 175.353 256.909 173.336 256.909C170.311 256.909 168.393 254.906 168.393 251.653V251.639H183.251V249.977C183.251 242.562 178.762 238.898 172.995 238.898C166.575 238.898 162.413 243.457 162.413 250.19C162.413 257.108 166.518 261.426 173.237 261.426ZM168.393 247.889C168.521 245.403 170.41 243.415 173.095 243.415C175.723 243.415 177.541 245.29 177.555 247.889H168.393ZM193.251 231.909H187.2V261H193.251V231.909ZM207.956 261.426C214.576 261.426 218.695 256.895 218.695 250.176C218.695 243.415 214.576 238.898 207.956 238.898C201.337 238.898 197.218 243.415 197.218 250.176C197.218 256.895 201.337 261.426 207.956 261.426ZM207.985 256.739C204.931 256.739 203.368 253.94 203.368 250.134C203.368 246.327 204.931 243.514 207.985 243.514C210.982 243.514 212.544 246.327 212.544 250.134C212.544 253.94 210.982 256.739 207.985 256.739ZM222.63 269.182H228.681V257.506H228.865C229.703 259.324 231.536 261.355 235.059 261.355C240.03 261.355 243.908 257.42 243.908 250.119C243.908 242.619 239.86 238.898 235.073 238.898C231.422 238.898 229.675 241.071 228.865 242.847H228.596V239.182H222.63V269.182ZM228.553 250.091C228.553 246.199 230.201 243.713 233.141 243.713C236.138 243.713 237.729 246.312 237.729 250.091C237.729 253.898 236.11 256.54 233.141 256.54C230.229 256.54 228.553 253.983 228.553 250.091ZM257.885 261.426C263.283 261.426 266.919 258.798 267.772 254.75L262.175 254.381C261.564 256.043 260.002 256.909 257.985 256.909C254.959 256.909 253.042 254.906 253.042 251.653V251.639H267.9V249.977C267.9 242.562 263.411 238.898 257.644 238.898C251.223 238.898 247.061 243.457 247.061 250.19C247.061 257.108 251.167 261.426 257.885 261.426ZM253.042 247.889C253.169 245.403 255.059 243.415 257.743 243.415C260.371 243.415 262.189 245.29 262.203 247.889H253.042ZM271.848 261H277.9V248.656C277.9 245.972 279.86 244.125 282.53 244.125C283.368 244.125 284.519 244.267 285.087 244.452V239.082C284.547 238.955 283.794 238.869 283.184 238.869C280.74 238.869 278.738 240.29 277.942 242.989H277.715V239.182H271.848V261Z" fill="#36B37E"/>
<path d="M48.8059 320.455H47.0446V335H48.8059V320.455ZM62.1671 335.227C64.5819 335.227 66.1728 333.75 66.4569 331.818H64.7807C64.4682 333.011 63.4739 333.722 62.1671 333.722C60.1784 333.722 58.9 332.074 58.9 329.545C58.9 327.074 60.2069 325.455 62.1671 325.455C63.6444 325.455 64.525 326.364 64.7807 327.358H66.4569C66.1728 325.312 64.4398 323.949 62.1387 323.949C59.1841 323.949 57.2239 326.278 57.2239 329.602C57.2239 332.869 59.0989 335.227 62.1671 335.227ZM72.1174 335.256C74.0208 335.256 75.0151 334.233 75.356 333.523H75.4412V335H77.1174V327.812C77.1174 324.347 74.4753 323.949 73.0833 323.949C71.4355 323.949 69.5605 324.517 68.7083 326.506L70.2992 327.074C70.6685 326.278 71.5421 325.426 73.1401 325.426C74.6813 325.426 75.4412 326.243 75.4412 327.642V327.699C75.4412 328.509 74.6174 328.438 72.6287 328.693C70.6046 328.956 68.3958 329.403 68.3958 331.903C68.3958 334.034 70.0435 335.256 72.1174 335.256ZM72.373 333.75C71.0378 333.75 70.0719 333.153 70.0719 331.989C70.0719 330.71 71.2367 330.312 72.5435 330.142C73.2537 330.057 75.1571 329.858 75.4412 329.517V331.051C75.4412 332.415 74.3617 333.75 72.373 333.75ZM81.8528 328.438C81.8528 326.534 83.0318 325.455 84.6369 325.455C86.1923 325.455 87.1369 326.47 87.1369 328.182V335H88.813V328.068C88.813 325.284 87.3287 323.949 85.1199 323.949C83.4721 323.949 82.4494 324.688 81.938 325.795H81.796V324.091H80.1767V335H81.8528V328.438ZM99.177 328.438C99.177 326.534 100.392 325.455 102.046 325.455C103.623 325.455 104.575 326.449 104.575 328.182V335H106.251V328.068C106.251 325.263 104.759 323.949 102.529 323.949C100.811 323.949 99.8304 324.666 99.3191 325.795H99.177V320.455H97.5009V335H99.177V328.438ZM113.891 335.227C116.107 335.227 117.726 334.119 118.238 332.472L116.618 332.017C116.192 333.153 115.205 333.722 113.891 333.722C111.924 333.722 110.567 332.45 110.489 330.114H118.408V329.403C118.408 325.341 115.993 323.949 113.721 323.949C110.766 323.949 108.806 326.278 108.806 329.631C108.806 332.983 110.738 335.227 113.891 335.227ZM110.489 328.665C110.603 326.967 111.803 325.455 113.721 325.455C115.539 325.455 116.704 326.818 116.704 328.665H110.489ZM122.634 320.455H120.958V335H122.634V320.455ZM125.704 339.091H127.38V333.324H127.522C127.892 333.92 128.602 335.227 130.704 335.227C133.431 335.227 135.335 333.04 135.335 329.574C135.335 326.136 133.431 323.949 130.676 323.949C128.545 323.949 127.892 325.256 127.522 325.824H127.323V324.091H125.704V339.091ZM127.352 329.545C127.352 327.102 128.431 325.455 130.477 325.455C132.607 325.455 133.659 327.244 133.659 329.545C133.659 331.875 132.579 333.722 130.477 333.722C128.46 333.722 127.352 332.017 127.352 329.545ZM144.596 339.062C146.109 339.062 147.181 338.26 147.806 336.591L152.451 324.119L150.619 324.091L147.607 332.784H147.494L144.482 324.091H142.664L146.698 335.057L146.386 335.909C145.789 337.543 145.022 337.699 143.801 337.386L143.374 338.864C143.545 338.949 144.028 339.062 144.596 339.062ZM158.71 335.227C161.665 335.227 163.653 332.983 163.653 329.602C163.653 326.193 161.665 323.949 158.71 323.949C155.756 323.949 153.767 326.193 153.767 329.602C153.767 332.983 155.756 335.227 158.71 335.227ZM158.71 333.722C156.466 333.722 155.443 331.79 155.443 329.602C155.443 327.415 156.466 325.455 158.71 325.455C160.954 325.455 161.977 327.415 161.977 329.602C161.977 331.79 160.954 333.722 158.71 333.722ZM173.087 330.54C173.087 332.585 171.524 333.523 170.274 333.523C168.882 333.523 167.888 332.5 167.888 330.909V324.091H166.212V331.023C166.212 333.807 167.689 335.142 169.735 335.142C171.382 335.142 172.462 334.261 172.973 333.153H173.087V335H174.763V324.091H173.087V330.54ZM183.685 335H185.305V333.324H185.503C185.873 333.92 186.583 335.227 188.685 335.227C191.412 335.227 193.316 333.04 193.316 329.574C193.316 326.136 191.412 323.949 188.657 323.949C186.526 323.949 185.873 325.256 185.503 325.824H185.361V320.455H183.685V335ZM185.333 329.545C185.333 327.102 186.412 325.455 188.458 325.455C190.589 325.455 191.64 327.244 191.64 329.545C191.64 331.875 190.56 333.722 188.458 333.722C186.441 333.722 185.333 332.017 185.333 329.545ZM202.755 330.54C202.755 332.585 201.192 333.523 199.942 333.523C198.55 333.523 197.556 332.5 197.556 330.909V324.091H195.88V331.023C195.88 333.807 197.357 335.142 199.403 335.142C201.05 335.142 202.13 334.261 202.641 333.153H202.755V335H204.431V324.091H202.755V330.54ZM207.501 335H209.177V324.091H207.501V335ZM208.353 322.273C209.007 322.273 209.546 321.761 209.546 321.136C209.546 320.511 209.007 320 208.353 320C207.7 320 207.16 320.511 207.16 321.136C207.16 321.761 207.7 322.273 208.353 322.273ZM213.923 320.455H212.247V335H213.923V320.455ZM221.112 335.227C223.215 335.227 223.925 333.92 224.294 333.324H224.493V335H226.112V320.455H224.436V325.824H224.294C223.925 325.256 223.271 323.949 221.141 323.949C218.385 323.949 216.482 326.136 216.482 329.574C216.482 333.04 218.385 335.227 221.112 335.227ZM221.34 333.722C219.237 333.722 218.158 331.875 218.158 329.545C218.158 327.244 219.209 325.455 221.34 325.455C223.385 325.455 224.465 327.102 224.465 329.545C224.465 332.017 223.357 333.722 221.34 333.722ZM238.25 335.256C240.154 335.256 241.148 334.233 241.489 333.523H241.574V335H243.25V327.812C243.25 324.347 240.608 323.949 239.216 323.949C237.568 323.949 235.693 324.517 234.841 326.506L236.432 327.074C236.801 326.278 237.675 325.426 239.273 325.426C240.814 325.426 241.574 326.243 241.574 327.642V327.699C241.574 328.509 240.75 328.438 238.762 328.693C236.737 328.956 234.529 329.403 234.529 331.903C234.529 334.034 236.176 335.256 238.25 335.256ZM238.506 333.75C237.171 333.75 236.205 333.153 236.205 331.989C236.205 330.71 237.369 330.312 238.676 330.142C239.387 330.057 241.29 329.858 241.574 329.517V331.051C241.574 332.415 240.494 333.75 238.506 333.75ZM251.934 339.091H253.611V333.324H253.753C254.122 333.92 254.832 335.227 256.934 335.227C259.662 335.227 261.565 333.04 261.565 329.574C261.565 326.136 259.662 323.949 256.906 323.949C254.775 323.949 254.122 325.256 253.753 325.824H253.554V324.091H251.934V339.091ZM253.582 329.545C253.582 327.102 254.662 325.455 256.707 325.455C258.838 325.455 259.889 327.244 259.889 329.545C259.889 331.875 258.809 333.722 256.707 333.722C254.69 333.722 253.582 332.017 253.582 329.545ZM264.122 335H265.798V328.097C265.798 326.619 266.963 325.54 268.554 325.54C269.001 325.54 269.463 325.625 269.577 325.653V323.949C269.385 323.935 268.944 323.92 268.696 323.92C267.389 323.92 266.253 324.659 265.855 325.739H265.741V324.091H264.122V335ZM275.663 335.227C278.618 335.227 280.606 332.983 280.606 329.602C280.606 326.193 278.618 323.949 275.663 323.949C272.709 323.949 270.72 326.193 270.72 329.602C270.72 332.983 272.709 335.227 275.663 335.227ZM275.663 333.722C273.419 333.722 272.396 331.79 272.396 329.602C272.396 327.415 273.419 325.455 275.663 325.455C277.907 325.455 278.93 327.415 278.93 329.602C278.93 331.79 277.907 333.722 275.663 333.722ZM287.284 335.227C289.387 335.227 290.097 333.92 290.466 333.324H290.665V335H292.284V320.455H290.608V325.824H290.466C290.097 325.256 289.443 323.949 287.313 323.949C284.557 323.949 282.654 326.136 282.654 329.574C282.654 333.04 284.557 335.227 287.284 335.227ZM287.512 333.722C285.409 333.722 284.33 331.875 284.33 329.545C284.33 327.244 285.381 325.455 287.512 325.455C289.557 325.455 290.637 327.102 290.637 329.545C290.637 332.017 289.529 333.722 287.512 333.722ZM302.462 330.54C302.462 332.585 300.899 333.523 299.649 333.523C298.257 333.523 297.263 332.5 297.263 330.909V324.091H295.587V331.023C295.587 333.807 297.064 335.142 299.11 335.142C300.757 335.142 301.837 334.261 302.348 333.153H302.462V335H304.138V324.091H302.462V330.54ZM311.64 335.227C314.055 335.227 315.645 333.75 315.93 331.818H314.253C313.941 333.011 312.947 333.722 311.64 333.722C309.651 333.722 308.373 332.074 308.373 329.545C308.373 327.074 309.68 325.455 311.64 325.455C313.117 325.455 313.998 326.364 314.253 327.358H315.93C315.645 325.312 313.912 323.949 311.611 323.949C308.657 323.949 306.697 326.278 306.697 329.602C306.697 332.869 308.572 335.227 311.64 335.227ZM323.124 324.091H320.795V321.477H319.118V324.091H317.471V325.511H319.118V332.33C319.118 334.233 320.653 335.142 322.073 335.142C322.698 335.142 323.096 335.028 323.323 334.943L322.982 333.438C322.84 333.466 322.613 333.523 322.243 333.523C321.505 333.523 320.795 333.295 320.795 331.875V325.511H323.124V324.091ZM333.77 333.011H331.952L331.867 333.807C331.661 335.732 331.256 337.649 331.072 338.551H332.35C332.691 337.585 333.415 335.398 333.657 333.778L333.77 333.011ZM42.3491 352.091H39.9059V350.983C39.9059 349.903 40.3604 349.335 41.4684 349.335C41.9513 349.335 42.2354 349.449 42.4059 349.506L42.8888 348.057C42.6332 347.943 42.1218 347.773 41.2979 347.773C39.7354 347.773 38.2298 348.71 38.2298 350.585V352.091H36.4684V353.511H38.2298V363H39.9059V353.511H42.3491V352.091ZM48.8228 363.227C51.0387 363.227 52.658 362.119 53.1694 360.472L51.5501 360.017C51.1239 361.153 50.1367 361.722 48.8228 361.722C46.8555 361.722 45.4989 360.45 45.4208 358.114H53.3398V357.403C53.3398 353.341 50.9251 351.949 48.6523 351.949C45.6978 351.949 43.7376 354.278 43.7376 357.631C43.7376 360.983 45.6694 363.227 48.8228 363.227ZM45.4208 356.665C45.5344 354.967 46.7347 353.455 48.6523 353.455C50.4705 353.455 51.6353 354.818 51.6353 356.665H45.4208ZM59.0998 363.256C61.0032 363.256 61.9975 362.233 62.3384 361.523H62.4237V363H64.0998V355.812C64.0998 352.347 61.4577 351.949 60.0657 351.949C58.418 351.949 56.543 352.517 55.6907 354.506L57.2816 355.074C57.6509 354.278 58.5245 353.426 60.1225 353.426C61.6637 353.426 62.4237 354.243 62.4237 355.642V355.699C62.4237 356.509 61.5998 356.438 59.6112 356.693C57.587 356.956 55.3782 357.403 55.3782 359.903C55.3782 362.034 57.0259 363.256 59.0998 363.256ZM59.3555 361.75C58.0202 361.75 57.0543 361.153 57.0543 359.989C57.0543 358.71 58.2191 358.312 59.5259 358.142C60.2362 358.057 62.1396 357.858 62.4237 357.517V359.051C62.4237 360.415 61.3441 361.75 59.3555 361.75ZM71.9034 352.091H69.5739V349.477H67.8977V352.091H66.25V353.511H67.8977V360.33C67.8977 362.233 69.4318 363.142 70.8523 363.142C71.4773 363.142 71.875 363.028 72.1023 362.943L71.7614 361.438C71.6193 361.466 71.392 361.523 71.0227 361.523C70.2841 361.523 69.5739 361.295 69.5739 359.875V353.511H71.9034V352.091ZM81.2997 358.54C81.2997 360.585 79.7372 361.523 78.4872 361.523C77.0952 361.523 76.1009 360.5 76.1009 358.909V352.091H74.4247V359.023C74.4247 361.807 75.902 363.142 77.9474 363.142C79.5952 363.142 80.6747 362.261 81.1861 361.153H81.2997V363H82.9759V352.091H81.2997V358.54ZM86.0458 363H87.7219V356.097C87.7219 354.619 88.8867 353.54 90.4776 353.54C90.9251 353.54 91.3867 353.625 91.5004 353.653V351.949C91.3086 351.935 90.8683 351.92 90.6197 351.92C89.3129 351.92 88.1765 352.659 87.7788 353.739H87.6651V352.091H86.0458V363ZM97.729 363.227C99.945 363.227 101.564 362.119 102.076 360.472L100.456 360.017C100.03 361.153 99.043 361.722 97.729 361.722C95.7617 361.722 94.4052 360.45 94.3271 358.114H102.246V357.403C102.246 353.341 99.8313 351.949 97.5586 351.949C94.604 351.949 92.6438 354.278 92.6438 357.631C92.6438 360.983 94.5756 363.227 97.729 363.227ZM94.3271 356.665C94.4407 354.967 95.641 353.455 97.5586 353.455C99.3768 353.455 100.542 354.818 100.542 356.665H94.3271ZM114.853 363.227C117.807 363.227 119.796 360.983 119.796 357.602C119.796 354.193 117.807 351.949 114.853 351.949C111.898 351.949 109.909 354.193 109.909 357.602C109.909 360.983 111.898 363.227 114.853 363.227ZM114.853 361.722C112.608 361.722 111.586 359.79 111.586 357.602C111.586 355.415 112.608 353.455 114.853 353.455C117.097 353.455 118.12 355.415 118.12 357.602C118.12 359.79 117.097 361.722 114.853 361.722ZM122.354 363H124.031V356.097C124.031 354.619 125.195 353.54 126.786 353.54C127.234 353.54 127.695 353.625 127.809 353.653V351.949C127.617 351.935 127.177 351.92 126.928 351.92C125.621 351.92 124.485 352.659 124.087 353.739H123.974V352.091H122.354V363ZM137.892 363H139.54L141.926 354.619H142.097L144.483 363H146.131L149.455 352.091H147.694L145.336 360.415H145.222L142.921 352.091H141.131L138.801 360.443H138.688L136.33 352.091H134.569L137.892 363ZM155.874 363.227C158.089 363.227 159.709 362.119 160.22 360.472L158.601 360.017C158.175 361.153 157.188 361.722 155.874 361.722C153.906 361.722 152.55 360.45 152.472 358.114H160.391V357.403C160.391 353.341 157.976 351.949 155.703 351.949C152.749 351.949 150.788 354.278 150.788 357.631C150.788 360.983 152.72 363.227 155.874 363.227ZM152.472 356.665C152.585 354.967 153.786 353.455 155.703 353.455C157.521 353.455 158.686 354.818 158.686 356.665H152.472ZM163.168 363H164.787V361.324H164.986C165.355 361.92 166.065 363.227 168.168 363.227C170.895 363.227 172.798 361.04 172.798 357.574C172.798 354.136 170.895 351.949 168.139 351.949C166.009 351.949 165.355 353.256 164.986 353.824H164.844V348.455H163.168V363ZM164.815 357.545C164.815 355.102 165.895 353.455 167.94 353.455C170.071 353.455 171.122 355.244 171.122 357.545C171.122 359.875 170.043 361.722 167.94 361.722C165.923 361.722 164.815 360.017 164.815 357.545ZM183.089 354.534C182.564 352.986 181.385 351.949 179.226 351.949C176.925 351.949 175.22 353.256 175.22 355.102C175.22 356.608 176.115 357.616 178.118 358.085L179.936 358.511C181.037 358.767 181.555 359.293 181.555 360.045C181.555 360.983 180.561 361.75 178.999 361.75C177.628 361.75 176.768 361.161 176.47 359.989L174.879 360.386C175.27 362.24 176.797 363.227 179.027 363.227C181.562 363.227 183.288 361.842 183.288 359.96C183.288 358.44 182.337 357.482 180.391 357.006L178.771 356.608C177.479 356.288 176.896 355.855 176.896 355.017C176.896 354.08 177.891 353.398 179.226 353.398C180.689 353.398 181.293 354.207 181.584 354.96L183.089 354.534ZM185.811 363H187.488V352.091H185.811V363ZM186.664 350.273C187.317 350.273 187.857 349.761 187.857 349.136C187.857 348.511 187.317 348 186.664 348C186.01 348 185.471 348.511 185.471 349.136C185.471 349.761 186.01 350.273 186.664 350.273ZM195.302 352.091H192.972V349.477H191.296V352.091H189.648V353.511H191.296V360.33C191.296 362.233 192.83 363.142 194.251 363.142C194.876 363.142 195.273 363.028 195.501 362.943L195.16 361.438C195.018 361.466 194.79 361.523 194.421 361.523C193.683 361.523 192.972 361.295 192.972 359.875V353.511H195.302V352.091ZM202.28 363.227C204.496 363.227 206.115 362.119 206.626 360.472L205.007 360.017C204.581 361.153 203.594 361.722 202.28 361.722C200.312 361.722 198.956 360.45 198.878 358.114H206.797V357.403C206.797 353.341 204.382 351.949 202.109 351.949C199.155 351.949 197.195 354.278 197.195 357.631C197.195 360.983 199.126 363.227 202.28 363.227ZM198.878 356.665C198.991 354.967 200.192 353.455 202.109 353.455C203.928 353.455 205.092 354.818 205.092 356.665H198.878ZM215.199 363H223.722V361.438H216.96V348.455H215.199V363ZM230.653 363.227C233.608 363.227 235.597 360.983 235.597 357.602C235.597 354.193 233.608 351.949 230.653 351.949C227.699 351.949 225.71 354.193 225.71 357.602C225.71 360.983 227.699 363.227 230.653 363.227ZM230.653 361.722C228.409 361.722 227.386 359.79 227.386 357.602C227.386 355.415 228.409 353.455 230.653 353.455C232.898 353.455 233.92 355.415 233.92 357.602C233.92 359.79 232.898 361.722 230.653 361.722ZM242.587 363.227C245.542 363.227 247.53 360.983 247.53 357.602C247.53 354.193 245.542 351.949 242.587 351.949C239.632 351.949 237.644 354.193 237.644 357.602C237.644 360.983 239.632 363.227 242.587 363.227ZM242.587 361.722C240.343 361.722 239.32 359.79 239.32 357.602C239.32 355.415 240.343 353.455 242.587 353.455C244.831 353.455 245.854 355.415 245.854 357.602C245.854 359.79 244.831 361.722 242.587 361.722ZM250.089 363H251.765V358.916L252.937 357.83L257.021 363H259.151L254.201 356.75L258.81 352.091H256.737L251.964 356.949H251.765V348.455H250.089V363ZM271.337 352.091H269.007V349.477H267.331V352.091H265.684V353.511H267.331V360.33C267.331 362.233 268.865 363.142 270.286 363.142C270.911 363.142 271.309 363.028 271.536 362.943L271.195 361.438C271.053 361.466 270.826 361.523 270.456 361.523C269.718 361.523 269.007 361.295 269.007 359.875V353.511H271.337V352.091ZM275.769 356.438C275.769 354.534 276.983 353.455 278.638 353.455C280.215 353.455 281.167 354.449 281.167 356.182V363H282.843V356.068C282.843 353.263 281.351 351.949 279.121 351.949C277.402 351.949 276.422 352.666 275.911 353.795H275.769V348.455H274.093V363H275.769V356.438ZM285.909 363H287.585V356.097C287.585 354.619 288.75 353.54 290.341 353.54C290.788 353.54 291.25 353.625 291.364 353.653V351.949C291.172 351.935 290.732 351.92 290.483 351.92C289.176 351.92 288.04 352.659 287.642 353.739H287.528V352.091H285.909V363ZM297.45 363.227C300.405 363.227 302.393 360.983 302.393 357.602C302.393 354.193 300.405 351.949 297.45 351.949C294.496 351.949 292.507 354.193 292.507 357.602C292.507 360.983 294.496 363.227 297.45 363.227ZM297.45 361.722C295.206 361.722 294.183 359.79 294.183 357.602C294.183 355.415 295.206 353.455 297.45 353.455C299.695 353.455 300.717 355.415 300.717 357.602C300.717 359.79 299.695 361.722 297.45 361.722ZM311.827 358.54C311.827 360.585 310.265 361.523 309.015 361.523C307.623 361.523 306.628 360.5 306.628 358.909V352.091H304.952V359.023C304.952 361.807 306.429 363.142 308.475 363.142C310.123 363.142 311.202 362.261 311.713 361.153H311.827V363H313.503V352.091H311.827V358.54ZM320.977 367.318C323.59 367.318 325.692 366.125 325.692 363.312V352.091H324.073V353.824H323.903C323.533 353.256 322.852 351.949 320.721 351.949C317.965 351.949 316.062 354.136 316.062 357.489C316.062 360.898 318.05 362.83 320.692 362.83C322.823 362.83 323.505 361.58 323.874 360.983H324.016V363.199C324.016 365.017 322.738 365.841 320.977 365.841C318.995 365.841 318.299 364.797 317.852 364.193L316.516 365.131C317.198 366.274 318.54 367.318 320.977 367.318ZM320.92 361.324C318.817 361.324 317.738 359.733 317.738 357.46C317.738 355.244 318.789 353.455 320.92 353.455C322.965 353.455 324.045 355.102 324.045 357.46C324.045 359.875 322.937 361.324 320.92 361.324ZM330.437 356.438C330.437 354.534 331.651 353.455 333.306 353.455C334.883 353.455 335.835 354.449 335.835 356.182V363H337.511V356.068C337.511 353.263 336.019 351.949 333.789 351.949C332.07 351.949 331.09 352.666 330.579 353.795H330.437V348.455H328.761V363H330.437V356.438ZM37.65 382.534C37.1245 380.986 35.9455 379.949 33.7864 379.949C31.4853 379.949 29.7807 381.256 29.7807 383.102C29.7807 384.608 30.6756 385.616 32.6784 386.085L34.4966 386.511C35.5975 386.767 36.1159 387.293 36.1159 388.045C36.1159 388.983 35.1216 389.75 33.5591 389.75C32.1884 389.75 31.329 389.161 31.0307 387.989L29.4398 388.386C29.8304 390.24 31.3574 391.227 33.5875 391.227C36.123 391.227 37.8489 389.842 37.8489 387.96C37.8489 386.44 36.8972 385.482 34.9512 385.006L33.3319 384.608C32.0392 384.288 31.4569 383.855 31.4569 383.017C31.4569 382.08 32.4512 381.398 33.7864 381.398C35.2495 381.398 35.8532 382.207 36.1444 382.96L37.65 382.534ZM44.8038 391.227C47.7583 391.227 49.747 388.983 49.747 385.602C49.747 382.193 47.7583 379.949 44.8038 379.949C41.8493 379.949 39.8606 382.193 39.8606 385.602C39.8606 388.983 41.8493 391.227 44.8038 391.227ZM44.8038 389.722C42.5595 389.722 41.5368 387.79 41.5368 385.602C41.5368 383.415 42.5595 381.455 44.8038 381.455C47.0481 381.455 48.0708 383.415 48.0708 385.602C48.0708 387.79 47.0481 389.722 44.8038 389.722ZM52.3056 391H53.9817V384.182C53.9817 382.584 55.1465 381.455 56.4533 381.455C57.7246 381.455 58.6124 382.286 58.6124 383.528V391H60.3169V383.898C60.3169 382.491 61.1976 381.455 62.7317 381.455C63.9249 381.455 64.9476 382.087 64.9476 383.699V391H66.6238V383.699C66.6238 381.135 65.2459 379.949 63.2999 379.949C61.7374 379.949 60.5939 380.666 60.0328 381.795H59.9192C59.3794 380.631 58.4277 379.949 56.9931 379.949C55.5726 379.949 54.5215 380.631 54.0669 381.795H53.9249V380.091H52.3056V391ZM74.2623 391.227C76.4782 391.227 78.0975 390.119 78.6088 388.472L76.9895 388.017C76.5634 389.153 75.5762 389.722 74.2623 389.722C72.2949 389.722 70.9384 388.45 70.8603 386.114H78.7793V385.403C78.7793 381.341 76.3645 379.949 74.0918 379.949C71.1373 379.949 69.177 382.278 69.177 385.631C69.177 388.983 71.1088 391.227 74.2623 391.227ZM70.8603 384.665C70.9739 382.967 72.1742 381.455 74.0918 381.455C75.91 381.455 77.0748 382.818 77.0748 384.665H70.8603ZM91.3858 391.227C94.3404 391.227 96.329 388.983 96.329 385.602C96.329 382.193 94.3404 379.949 91.3858 379.949C88.4313 379.949 86.4426 382.193 86.4426 385.602C86.4426 388.983 88.4313 391.227 91.3858 391.227ZM91.3858 389.722C89.1415 389.722 88.1188 387.79 88.1188 385.602C88.1188 383.415 89.1415 381.455 91.3858 381.455C93.6301 381.455 94.6529 383.415 94.6529 385.602C94.6529 387.79 93.6301 389.722 91.3858 389.722ZM103.746 380.091H101.302V378.983C101.302 377.903 101.757 377.335 102.865 377.335C103.348 377.335 103.632 377.449 103.802 377.506L104.285 376.057C104.03 375.943 103.518 375.773 102.694 375.773C101.132 375.773 99.6262 376.71 99.6262 378.585V380.091H97.8649V381.511H99.6262V391H101.302V381.511H103.746V380.091ZM111.72 391H113.396V384.182C113.396 382.584 114.561 381.455 115.867 381.455C117.139 381.455 118.026 382.286 118.026 383.528V391H119.731V383.898C119.731 382.491 120.612 381.455 122.146 381.455C123.339 381.455 124.362 382.087 124.362 383.699V391H126.038V383.699C126.038 381.135 124.66 379.949 122.714 379.949C121.151 379.949 120.008 380.666 119.447 381.795H119.333C118.794 380.631 117.842 379.949 116.407 379.949C114.987 379.949 113.936 380.631 113.481 381.795H113.339V380.091H111.72V391ZM129.791 395.062C131.304 395.062 132.377 394.26 133.002 392.591L137.646 380.119L135.814 380.091L132.803 388.784H132.689L129.678 380.091H127.86L131.894 391.057L131.581 391.909C130.985 393.543 130.218 393.699 128.996 393.386L128.57 394.864C128.74 394.949 129.223 395.062 129.791 395.062ZM147.961 391H149.608L151.995 382.619H152.165L154.552 391H156.199L159.523 380.091H157.762L155.404 388.415H155.29L152.989 380.091H151.199L148.87 388.443H148.756L146.398 380.091H144.637L147.961 391ZM165.8 391.227C168.754 391.227 170.743 388.983 170.743 385.602C170.743 382.193 168.754 379.949 165.8 379.949C162.845 379.949 160.857 382.193 160.857 385.602C160.857 388.983 162.845 391.227 165.8 391.227ZM165.8 389.722C163.556 389.722 162.533 387.79 162.533 385.602C162.533 383.415 163.556 381.455 165.8 381.455C168.044 381.455 169.067 383.415 169.067 385.602C169.067 387.79 168.044 389.722 165.8 389.722ZM173.302 391H174.978V384.097C174.978 382.619 176.143 381.54 177.733 381.54C178.181 381.54 178.643 381.625 178.756 381.653V379.949C178.564 379.935 178.124 379.92 177.876 379.92C176.569 379.92 175.432 380.659 175.035 381.739H174.921V380.091H173.302V391ZM180.743 391H182.419V386.916L183.591 385.83L187.675 391H189.806L184.855 384.75L189.465 380.091H187.391L182.618 384.949H182.419V376.455H180.743V391ZM200.457 391.256C202.361 391.256 203.355 390.233 203.696 389.523H203.781V391H205.457V383.812C205.457 380.347 202.815 379.949 201.423 379.949C199.775 379.949 197.9 380.517 197.048 382.506L198.639 383.074C199.008 382.278 199.882 381.426 201.48 381.426C203.021 381.426 203.781 382.243 203.781 383.642V383.699C203.781 384.509 202.957 384.438 200.969 384.693C198.944 384.956 196.736 385.403 196.736 387.903C196.736 390.034 198.383 391.256 200.457 391.256ZM200.713 389.75C199.378 389.75 198.412 389.153 198.412 387.989C198.412 386.71 199.577 386.312 200.883 386.142C201.594 386.057 203.497 385.858 203.781 385.517V387.051C203.781 388.415 202.702 389.75 200.713 389.75ZM210.193 384.438C210.193 382.534 211.372 381.455 212.977 381.455C214.532 381.455 215.477 382.47 215.477 384.182V391H217.153V384.068C217.153 381.284 215.669 379.949 213.46 379.949C211.812 379.949 210.789 380.688 210.278 381.795H210.136V380.091H208.517V391H210.193V384.438ZM224.335 391.227C226.437 391.227 227.148 389.92 227.517 389.324H227.716V391H229.335V376.455H227.659V381.824H227.517C227.148 381.256 226.494 379.949 224.363 379.949C221.608 379.949 219.704 382.136 219.704 385.574C219.704 389.04 221.608 391.227 224.335 391.227ZM224.562 389.722C222.46 389.722 221.381 387.875 221.381 385.545C221.381 383.244 222.432 381.455 224.562 381.455C226.608 381.455 227.687 383.102 227.687 385.545C227.687 388.017 226.579 389.722 224.562 389.722ZM242.836 391.227C245.052 391.227 246.672 390.119 247.183 388.472L245.564 388.017C245.138 389.153 244.15 389.722 242.836 389.722C240.869 389.722 239.513 388.45 239.434 386.114H247.354V385.403C247.354 381.341 244.939 379.949 242.666 379.949C239.711 379.949 237.751 382.278 237.751 385.631C237.751 388.983 239.683 391.227 242.836 391.227ZM239.434 384.665C239.548 382.967 240.748 381.455 242.666 381.455C244.484 381.455 245.649 382.818 245.649 384.665H239.434ZM250.86 380.091H248.928L252.394 385.545L248.928 391H250.86L253.474 386.767L256.088 391H258.019L254.497 385.545L258.019 380.091H256.088L253.474 384.551L250.86 380.091ZM260.411 395.091H262.087V389.324H262.229C262.599 389.92 263.309 391.227 265.411 391.227C268.138 391.227 270.042 389.04 270.042 385.574C270.042 382.136 268.138 379.949 265.383 379.949C263.252 379.949 262.599 381.256 262.229 381.824H262.03V380.091H260.411V395.091ZM262.059 385.545C262.059 383.102 263.138 381.455 265.184 381.455C267.314 381.455 268.366 383.244 268.366 385.545C268.366 387.875 267.286 389.722 265.184 389.722C263.167 389.722 262.059 388.017 262.059 385.545ZM277.172 391.227C279.388 391.227 281.008 390.119 281.519 388.472L279.9 388.017C279.474 389.153 278.486 389.722 277.172 389.722C275.205 389.722 273.849 388.45 273.77 386.114H281.689V385.403C281.689 381.341 279.275 379.949 277.002 379.949C274.047 379.949 272.087 382.278 272.087 385.631C272.087 388.983 274.019 391.227 277.172 391.227ZM273.77 384.665C273.884 382.967 275.084 381.455 277.002 381.455C278.82 381.455 279.985 382.818 279.985 384.665H273.77ZM284.239 391H285.915V384.097C285.915 382.619 287.08 381.54 288.671 381.54C289.118 381.54 289.58 381.625 289.694 381.653V379.949C289.502 379.935 289.062 379.92 288.813 379.92C287.506 379.92 286.37 380.659 285.972 381.739H285.858V380.091H284.239V391ZM291.681 391H293.357V380.091H291.681V391ZM292.533 378.273C293.186 378.273 293.726 377.761 293.726 377.136C293.726 376.511 293.186 376 292.533 376C291.879 376 291.34 376.511 291.34 377.136C291.34 377.761 291.879 378.273 292.533 378.273ZM301.001 391.227C303.216 391.227 304.836 390.119 305.347 388.472L303.728 388.017C303.302 389.153 302.314 389.722 301.001 389.722C299.033 389.722 297.677 388.45 297.599 386.114H305.518V385.403C305.518 381.341 303.103 379.949 300.83 379.949C297.876 379.949 295.915 382.278 295.915 385.631C295.915 388.983 297.847 391.227 301.001 391.227ZM297.599 384.665C297.712 382.967 298.912 381.455 300.83 381.455C302.648 381.455 303.813 382.818 303.813 384.665H297.599ZM309.743 384.438C309.743 382.534 310.922 381.455 312.528 381.455C314.083 381.455 315.028 382.47 315.028 384.182V391H316.704V384.068C316.704 381.284 315.219 379.949 313.01 379.949C311.363 379.949 310.34 380.688 309.829 381.795H309.687V380.091H308.067V391H309.743V384.438ZM324.198 391.227C326.613 391.227 328.204 389.75 328.488 387.818H326.812C326.499 389.011 325.505 389.722 324.198 389.722C322.21 389.722 320.931 388.074 320.931 385.545C320.931 383.074 322.238 381.455 324.198 381.455C325.676 381.455 326.556 382.364 326.812 383.358H328.488C328.204 381.312 326.471 379.949 324.17 379.949C321.215 379.949 319.255 382.278 319.255 385.602C319.255 388.869 321.13 391.227 324.198 391.227ZM335.512 391.227C337.728 391.227 339.347 390.119 339.859 388.472L338.24 388.017C337.813 389.153 336.826 389.722 335.512 389.722C333.545 389.722 332.188 388.45 332.11 386.114H340.029V385.403C340.029 381.341 337.615 379.949 335.342 379.949C332.387 379.949 330.427 382.278 330.427 385.631C330.427 388.983 332.359 391.227 335.512 391.227ZM332.11 384.665C332.224 382.967 333.424 381.455 335.342 381.455C337.16 381.455 338.325 382.818 338.325 384.665H332.11ZM344.795 376.455H342.863L343.005 386.909H344.653L344.795 376.455ZM343.829 391.114C344.532 391.114 345.107 390.538 345.107 389.835C345.107 389.132 344.532 388.557 343.829 388.557C343.126 388.557 342.551 389.132 342.551 389.835C342.551 390.538 343.126 391.114 343.829 391.114ZM34.5872 404.455H32.8258V419H34.5872V404.455ZM42.7495 408.091H40.3063V406.983C40.3063 405.903 40.7608 405.335 41.8688 405.335C42.3517 405.335 42.6358 405.449 42.8063 405.506L43.2892 404.057C43.0336 403.943 42.5222 403.773 41.6983 403.773C40.1358 403.773 38.6301 404.71 38.6301 406.585V408.091H36.8688V409.511H38.6301V419H40.3063V409.511H42.7495V408.091ZM51.8031 423.062C53.3159 423.062 54.3883 422.26 55.0133 420.591L59.6582 408.119L57.8258 408.091L54.8145 416.784H54.7008L51.6895 408.091H49.8713L53.9054 419.057L53.5929 419.909C52.9963 421.543 52.2292 421.699 51.0076 421.386L50.5815 422.864C50.752 422.949 51.2349 423.062 51.8031 423.062ZM65.9171 419.227C68.8716 419.227 70.8603 416.983 70.8603 413.602C70.8603 410.193 68.8716 407.949 65.9171 407.949C62.9625 407.949 60.9739 410.193 60.9739 413.602C60.9739 416.983 62.9625 419.227 65.9171 419.227ZM65.9171 417.722C63.6728 417.722 62.65 415.79 62.65 413.602C62.65 411.415 63.6728 409.455 65.9171 409.455C68.1614 409.455 69.1841 411.415 69.1841 413.602C69.1841 415.79 68.1614 417.722 65.9171 417.722ZM80.2939 414.54C80.2939 416.585 78.7314 417.523 77.4814 417.523C76.0893 417.523 75.095 416.5 75.095 414.909V408.091H73.4189V415.023C73.4189 417.807 74.8961 419.142 76.9416 419.142C78.5893 419.142 79.6689 418.261 80.1802 417.153H80.2939V419H81.97V408.091H80.2939V414.54ZM92.3411 404.455H90.665V419H92.3411V404.455ZM95.411 419H97.0872V408.091H95.411V419ZM96.2633 406.273C96.9167 406.273 97.4565 405.761 97.4565 405.136C97.4565 404.511 96.9167 404 96.2633 404C95.6099 404 95.0701 404.511 95.0701 405.136C95.0701 405.761 95.6099 406.273 96.2633 406.273ZM100.157 419H101.833V414.916L103.005 413.83L107.089 419H109.22L104.269 412.75L108.879 408.091H106.805L102.032 412.949H101.833V404.455H100.157V419ZM115.161 419.227C117.377 419.227 118.996 418.119 119.507 416.472L117.888 416.017C117.462 417.153 116.475 417.722 115.161 417.722C113.193 417.722 111.837 416.45 111.759 414.114H119.678V413.403C119.678 409.341 117.263 407.949 114.99 407.949C112.036 407.949 110.075 410.278 110.075 413.631C110.075 416.983 112.007 419.227 115.161 419.227ZM111.759 412.665C111.872 410.967 113.073 409.455 114.99 409.455C116.808 409.455 117.973 410.818 117.973 412.665H111.759ZM130.324 419H131.972L134.358 410.619H134.529L136.915 419H138.563L141.887 408.091H140.125L137.767 416.415H137.654L135.352 408.091H133.563L131.233 416.443H131.119L128.762 408.091H127L130.324 419ZM145.779 412.438C145.779 410.534 146.993 409.455 148.648 409.455C150.225 409.455 151.176 410.449 151.176 412.182V419H152.852V412.068C152.852 409.263 151.361 407.949 149.131 407.949C147.412 407.949 146.432 408.666 145.921 409.795H145.779V404.455H144.102V419H145.779V412.438ZM159.129 419.256C161.032 419.256 162.027 418.233 162.368 417.523H162.453V419H164.129V411.812C164.129 408.347 161.487 407.949 160.095 407.949C158.447 407.949 156.572 408.517 155.72 410.506L157.311 411.074C157.68 410.278 158.554 409.426 160.152 409.426C161.693 409.426 162.453 410.243 162.453 411.642V411.699C162.453 412.509 161.629 412.438 159.64 412.693C157.616 412.956 155.407 413.403 155.407 415.903C155.407 418.034 157.055 419.256 159.129 419.256ZM159.385 417.75C158.05 417.75 157.084 417.153 157.084 415.989C157.084 414.71 158.248 414.312 159.555 414.142C160.265 414.057 162.169 413.858 162.453 413.517V415.051C162.453 416.415 161.373 417.75 159.385 417.75ZM171.933 408.091H169.603V405.477H167.927V408.091H166.279V409.511H167.927V416.33C167.927 418.233 169.461 419.142 170.882 419.142C171.507 419.142 171.904 419.028 172.132 418.943L171.791 417.438C171.649 417.466 171.421 417.523 171.052 417.523C170.313 417.523 169.603 417.295 169.603 415.875V409.511H171.933V408.091ZM181.159 423.062C182.671 423.062 183.744 422.26 184.369 420.591L189.014 408.119L187.181 408.091L184.17 416.784H184.056L181.045 408.091H179.227L183.261 419.057L182.948 419.909C182.352 421.543 181.585 421.699 180.363 421.386L179.937 422.864C180.107 422.949 180.59 423.062 181.159 423.062ZM195.273 419.227C198.227 419.227 200.216 416.983 200.216 413.602C200.216 410.193 198.227 407.949 195.273 407.949C192.318 407.949 190.329 410.193 190.329 413.602C190.329 416.983 192.318 419.227 195.273 419.227ZM195.273 417.722C193.028 417.722 192.006 415.79 192.006 413.602C192.006 411.415 193.028 409.455 195.273 409.455C197.517 409.455 198.54 411.415 198.54 413.602C198.54 415.79 197.517 417.722 195.273 417.722ZM209.649 414.54C209.649 416.585 208.087 417.523 206.837 417.523C205.445 417.523 204.45 416.5 204.45 414.909V408.091H202.774V415.023C202.774 417.807 204.252 419.142 206.297 419.142C207.945 419.142 209.024 418.261 209.536 417.153H209.649V419H211.325V408.091H209.649V414.54ZM227.748 410.534C227.222 408.986 226.043 407.949 223.884 407.949C221.583 407.949 219.878 409.256 219.878 411.102C219.878 412.608 220.773 413.616 222.776 414.085L224.594 414.511C225.695 414.767 226.214 415.293 226.214 416.045C226.214 416.983 225.219 417.75 223.657 417.75C222.286 417.75 221.427 417.161 221.128 415.989L219.537 416.386C219.928 418.24 221.455 419.227 223.685 419.227C226.221 419.227 227.947 417.842 227.947 415.96C227.947 414.44 226.995 413.482 225.049 413.006L223.43 412.608C222.137 412.288 221.555 411.855 221.555 411.017C221.555 410.08 222.549 409.398 223.884 409.398C225.347 409.398 225.951 410.207 226.242 410.96L227.748 410.534ZM235.044 419.227C237.259 419.227 238.879 418.119 239.39 416.472L237.771 416.017C237.345 417.153 236.357 417.722 235.044 417.722C233.076 417.722 231.72 416.45 231.642 414.114H239.561V413.403C239.561 409.341 237.146 407.949 234.873 407.949C231.919 407.949 229.958 410.278 229.958 413.631C229.958 416.983 231.89 419.227 235.044 419.227ZM231.642 412.665C231.755 410.967 232.955 409.455 234.873 409.455C236.691 409.455 237.856 410.818 237.856 412.665H231.642ZM246.684 419.227C248.9 419.227 250.519 418.119 251.031 416.472L249.411 416.017C248.985 417.153 247.998 417.722 246.684 417.722C244.717 417.722 243.36 416.45 243.282 414.114H251.201V413.403C251.201 409.341 248.786 407.949 246.514 407.949C243.559 407.949 241.599 410.278 241.599 413.631C241.599 416.983 243.531 419.227 246.684 419.227ZM243.282 412.665C243.396 410.967 244.596 409.455 246.514 409.455C248.332 409.455 249.497 410.818 249.497 412.665H243.282ZM262.586 419.256C264.49 419.256 265.484 418.233 265.825 417.523H265.91V419H267.586V411.812C267.586 408.347 264.944 407.949 263.552 407.949C261.904 407.949 260.029 408.517 259.177 410.506L260.768 411.074C261.137 410.278 262.011 409.426 263.609 409.426C265.15 409.426 265.91 410.243 265.91 411.642V411.699C265.91 412.509 265.086 412.438 263.097 412.693C261.073 412.956 258.865 413.403 258.865 415.903C258.865 418.034 260.512 419.256 262.586 419.256ZM262.842 417.75C261.507 417.75 260.541 417.153 260.541 415.989C260.541 414.71 261.705 414.312 263.012 414.142C263.722 414.057 265.626 413.858 265.91 413.517V415.051C265.91 416.415 264.83 417.75 262.842 417.75ZM272.322 412.438C272.322 410.534 273.501 409.455 275.106 409.455C276.661 409.455 277.606 410.47 277.606 412.182V419H279.282V412.068C279.282 409.284 277.797 407.949 275.589 407.949C273.941 407.949 272.918 408.688 272.407 409.795H272.265V408.091H270.645V419H272.322V412.438ZM286.464 419.227C288.566 419.227 289.276 417.92 289.646 417.324H289.845V419H291.464V404.455H289.788V409.824H289.646C289.276 409.256 288.623 407.949 286.492 407.949C283.737 407.949 281.833 410.136 281.833 413.574C281.833 417.04 283.737 419.227 286.464 419.227ZM286.691 417.722C284.589 417.722 283.509 415.875 283.509 413.545C283.509 411.244 284.561 409.455 286.691 409.455C288.737 409.455 289.816 411.102 289.816 413.545C289.816 416.017 288.708 417.722 286.691 417.722ZM302.068 412.438C302.068 410.534 303.282 409.455 304.937 409.455C306.514 409.455 307.465 410.449 307.465 412.182V419H309.142V412.068C309.142 409.263 307.65 407.949 305.42 407.949C303.701 407.949 302.721 408.666 302.21 409.795H302.068V404.455H300.392V419H302.068V412.438ZM315.418 419.256C317.322 419.256 318.316 418.233 318.657 417.523H318.742V419H320.418V411.812C320.418 408.347 317.776 407.949 316.384 407.949C314.736 407.949 312.861 408.517 312.009 410.506L313.6 411.074C313.969 410.278 314.843 409.426 316.441 409.426C317.982 409.426 318.742 410.243 318.742 411.642V411.699C318.742 412.509 317.918 412.438 315.93 412.693C313.905 412.956 311.697 413.403 311.697 415.903C311.697 418.034 313.344 419.256 315.418 419.256ZM315.674 417.75C314.339 417.75 313.373 417.153 313.373 415.989C313.373 414.71 314.537 414.312 315.844 414.142C316.555 414.057 318.458 413.858 318.742 413.517V415.051C318.742 416.415 317.662 417.75 315.674 417.75ZM332.007 408.091H330.189L327.178 416.784H327.064L324.053 408.091H322.235L326.269 419H327.973L332.007 408.091ZM338.403 419.227C340.619 419.227 342.238 418.119 342.749 416.472L341.13 416.017C340.704 417.153 339.717 417.722 338.403 417.722C336.436 417.722 335.079 416.45 335.001 414.114H342.92V413.403C342.92 409.341 340.505 407.949 338.232 407.949C335.278 407.949 333.318 410.278 333.318 413.631C333.318 416.983 335.249 419.227 338.403 419.227ZM335.001 412.665C335.115 410.967 336.315 409.455 338.232 409.455C340.051 409.455 341.215 410.818 341.215 412.665H335.001ZM66.0627 447.256C67.9661 447.256 68.9604 446.233 69.3013 445.523H69.3865V447H71.0627V439.812C71.0627 436.347 68.4206 435.949 67.0286 435.949C65.3809 435.949 63.5059 436.517 62.6536 438.506L64.2445 439.074C64.6138 438.278 65.4874 437.426 67.0854 437.426C68.6266 437.426 69.3865 438.243 69.3865 439.642V439.699C69.3865 440.509 68.5627 440.438 66.574 440.693C64.5499 440.956 62.3411 441.403 62.3411 443.903C62.3411 446.034 63.9888 447.256 66.0627 447.256ZM66.3184 445.75C64.9831 445.75 64.0172 445.153 64.0172 443.989C64.0172 442.71 65.182 442.312 66.4888 442.142C67.199 442.057 69.1025 441.858 69.3865 441.517V443.051C69.3865 444.415 68.307 445.75 66.3184 445.75ZM79.747 451.091H81.4231V445.324H81.5652C81.9345 445.92 82.6447 447.227 84.747 447.227C87.4743 447.227 89.3777 445.04 89.3777 441.574C89.3777 438.136 87.4743 435.949 84.7186 435.949C82.5879 435.949 81.9345 437.256 81.5652 437.824H81.3663V436.091H79.747V451.091ZM81.3947 441.545C81.3947 439.102 82.4743 437.455 84.5197 437.455C86.6504 437.455 87.7015 439.244 87.7015 441.545C87.7015 443.875 86.622 445.722 84.5197 445.722C82.5027 445.722 81.3947 444.017 81.3947 441.545ZM91.9345 447H93.6106V440.097C93.6106 438.619 94.7754 437.54 96.3663 437.54C96.8137 437.54 97.2754 437.625 97.389 437.653V435.949C97.1973 435.935 96.7569 435.92 96.5083 435.92C95.2015 435.92 94.0652 436.659 93.6674 437.739H93.5538V436.091H91.9345V447ZM103.476 447.227C106.43 447.227 108.419 444.983 108.419 441.602C108.419 438.193 106.43 435.949 103.476 435.949C100.521 435.949 98.5325 438.193 98.5325 441.602C98.5325 444.983 100.521 447.227 103.476 447.227ZM103.476 445.722C101.231 445.722 100.209 443.79 100.209 441.602C100.209 439.415 101.231 437.455 103.476 437.455C105.72 437.455 106.743 439.415 106.743 441.602C106.743 443.79 105.72 445.722 103.476 445.722ZM110.977 436.091V447.795C110.977 448.903 110.523 449.528 109.5 449.528H109.188V451.091H109.529C111.631 451.091 112.654 449.812 112.654 447.795V436.091H110.977ZM111.801 434.273C112.455 434.273 112.994 433.761 112.994 433.136C112.994 432.511 112.455 432 111.801 432C111.148 432 110.608 432.511 110.608 433.136C110.608 433.761 111.148 434.273 111.801 434.273ZM120.297 447.227C122.513 447.227 124.133 446.119 124.644 444.472L123.025 444.017C122.599 445.153 121.611 445.722 120.297 445.722C118.33 445.722 116.974 444.45 116.895 442.114H124.814V441.403C124.814 437.341 122.4 435.949 120.127 435.949C117.172 435.949 115.212 438.278 115.212 441.631C115.212 444.983 117.144 447.227 120.297 447.227ZM116.895 440.665C117.009 438.967 118.209 437.455 120.127 437.455C121.945 437.455 123.11 438.818 123.11 440.665H116.895ZM131.796 447.227C134.211 447.227 135.802 445.75 136.086 443.818H134.41C134.097 445.011 133.103 445.722 131.796 445.722C129.807 445.722 128.529 444.074 128.529 441.545C128.529 439.074 129.836 437.455 131.796 437.455C133.273 437.455 134.154 438.364 134.41 439.358H136.086C135.802 437.312 134.069 435.949 131.768 435.949C128.813 435.949 126.853 438.278 126.853 441.602C126.853 444.869 128.728 447.227 131.796 447.227ZM143.28 436.091H140.951V433.477H139.275V436.091H137.627V437.511H139.275V444.33C139.275 446.233 140.809 447.142 142.229 447.142C142.854 447.142 143.252 447.028 143.479 446.943L143.138 445.438C142.996 445.466 142.769 445.523 142.4 445.523C141.661 445.523 140.951 445.295 140.951 443.875V437.511H143.28V436.091ZM152.506 451.062C154.019 451.062 155.091 450.26 155.716 448.591L160.361 436.119L158.529 436.091L155.518 444.784H155.404L152.393 436.091H150.574L154.608 447.057L154.296 447.909C153.699 449.543 152.932 449.699 151.711 449.386L151.285 450.864C151.455 450.949 151.938 451.062 152.506 451.062ZM166.62 447.227C169.575 447.227 171.563 444.983 171.563 441.602C171.563 438.193 169.575 435.949 166.62 435.949C163.666 435.949 161.677 438.193 161.677 441.602C161.677 444.983 163.666 447.227 166.62 447.227ZM166.62 445.722C164.376 445.722 163.353 443.79 163.353 441.602C163.353 439.415 164.376 437.455 166.62 437.455C168.865 437.455 169.887 439.415 169.887 441.602C169.887 443.79 168.865 445.722 166.62 445.722ZM180.997 442.54C180.997 444.585 179.434 445.523 178.184 445.523C176.792 445.523 175.798 444.5 175.798 442.909V436.091H174.122V443.023C174.122 445.807 175.599 447.142 177.645 447.142C179.292 447.142 180.372 446.261 180.883 445.153H180.997V447H182.673V436.091H180.997V442.54ZM193.044 440.438C193.044 438.534 194.223 437.455 195.828 437.455C197.384 437.455 198.328 438.47 198.328 440.182V447H200.004V440.068C200.004 437.284 198.52 435.949 196.311 435.949C194.664 435.949 193.641 436.688 193.129 437.795H192.987V436.091H191.368V447H193.044V440.438ZM207.641 447.227C209.857 447.227 211.476 446.119 211.988 444.472L210.368 444.017C209.942 445.153 208.955 445.722 207.641 445.722C205.674 445.722 204.317 444.45 204.239 442.114H212.158V441.403C212.158 437.341 209.743 435.949 207.471 435.949C204.516 435.949 202.556 438.278 202.556 441.631C202.556 444.983 204.488 447.227 207.641 447.227ZM204.239 440.665C204.353 438.967 205.553 437.455 207.471 437.455C209.289 437.455 210.454 438.818 210.454 440.665H204.239ZM219.282 447.227C221.498 447.227 223.117 446.119 223.628 444.472L222.009 444.017C221.583 445.153 220.596 445.722 219.282 445.722C217.314 445.722 215.958 444.45 215.88 442.114H223.799V441.403C223.799 437.341 221.384 435.949 219.111 435.949C216.157 435.949 214.197 438.278 214.197 441.631C214.197 444.983 216.128 447.227 219.282 447.227ZM215.88 440.665C215.993 438.967 217.194 437.455 219.111 437.455C220.93 437.455 222.094 438.818 222.094 440.665H215.88ZM230.468 447.227C232.57 447.227 233.28 445.92 233.65 445.324H233.849V447H235.468V432.455H233.792V437.824H233.65C233.28 437.256 232.627 435.949 230.496 435.949C227.741 435.949 225.837 438.136 225.837 441.574C225.837 445.04 227.741 447.227 230.468 447.227ZM230.695 445.722C228.593 445.722 227.513 443.875 227.513 441.545C227.513 439.244 228.564 437.455 230.695 437.455C232.741 437.455 233.82 439.102 233.82 441.545C233.82 444.017 232.712 445.722 230.695 445.722ZM248.827 447.227C251.242 447.227 252.833 445.75 253.117 443.818H251.441C251.128 445.011 250.134 445.722 248.827 445.722C246.839 445.722 245.56 444.074 245.56 441.545C245.56 439.074 246.867 437.455 248.827 437.455C250.305 437.455 251.185 438.364 251.441 439.358H253.117C252.833 437.312 251.1 435.949 248.799 435.949C245.844 435.949 243.884 438.278 243.884 441.602C243.884 444.869 245.759 447.227 248.827 447.227ZM259.999 447.227C262.954 447.227 264.942 444.983 264.942 441.602C264.942 438.193 262.954 435.949 259.999 435.949C257.045 435.949 255.056 438.193 255.056 441.602C255.056 444.983 257.045 447.227 259.999 447.227ZM259.999 445.722C257.755 445.722 256.732 443.79 256.732 441.602C256.732 439.415 257.755 437.455 259.999 437.455C262.243 437.455 263.266 439.415 263.266 441.602C263.266 443.79 262.243 445.722 259.999 445.722ZM271.62 447.227C273.722 447.227 274.433 445.92 274.802 445.324H275.001V447H276.62V432.455H274.944V437.824H274.802C274.433 437.256 273.779 435.949 271.649 435.949C268.893 435.949 266.99 438.136 266.99 441.574C266.99 445.04 268.893 447.227 271.62 447.227ZM271.847 445.722C269.745 445.722 268.666 443.875 268.666 441.545C268.666 439.244 269.717 437.455 271.847 437.455C273.893 437.455 274.972 439.102 274.972 441.545C274.972 444.017 273.865 445.722 271.847 445.722ZM284.497 447.227C286.713 447.227 288.332 446.119 288.843 444.472L287.224 444.017C286.798 445.153 285.811 445.722 284.497 445.722C282.529 445.722 281.173 444.45 281.095 442.114H289.014V441.403C289.014 437.341 286.599 435.949 284.326 435.949C281.372 435.949 279.411 438.278 279.411 441.631C279.411 444.983 281.343 447.227 284.497 447.227ZM281.095 440.665C281.208 438.967 282.409 437.455 284.326 437.455C286.144 437.455 287.309 438.818 287.309 440.665H281.095ZM295.683 447.227C297.785 447.227 298.495 445.92 298.865 445.324H299.063V447H300.683V432.455H299.007V437.824H298.865C298.495 437.256 297.842 435.949 295.711 435.949C292.955 435.949 291.052 438.136 291.052 441.574C291.052 445.04 292.955 447.227 295.683 447.227ZM295.91 445.722C293.808 445.722 292.728 443.875 292.728 441.545C292.728 439.244 293.779 437.455 295.91 437.455C297.955 437.455 299.035 439.102 299.035 441.545C299.035 444.017 297.927 445.722 295.91 445.722ZM306.485 445.011H304.667L304.582 445.807C304.376 447.732 303.971 449.649 303.786 450.551H305.065C305.406 449.585 306.13 447.398 306.372 445.778L306.485 445.011ZM57.5675 475.227C59.6697 475.227 60.38 473.92 60.7493 473.324H60.9482V475H62.5675V460.455H60.8913V465.824H60.7493C60.38 465.256 59.7266 463.949 57.5959 463.949C54.8402 463.949 52.9368 466.136 52.9368 469.574C52.9368 473.04 54.8402 475.227 57.5675 475.227ZM57.7947 473.722C55.6925 473.722 54.6129 471.875 54.6129 469.545C54.6129 467.244 55.6641 465.455 57.7947 465.455C59.8402 465.455 60.9197 467.102 60.9197 469.545C60.9197 472.017 59.8118 473.722 57.7947 473.722ZM70.3018 475.227C73.2564 475.227 75.245 472.983 75.245 469.602C75.245 466.193 73.2564 463.949 70.3018 463.949C67.3473 463.949 65.3587 466.193 65.3587 469.602C65.3587 472.983 67.3473 475.227 70.3018 475.227ZM70.3018 473.722C68.0575 473.722 67.0348 471.79 67.0348 469.602C67.0348 467.415 68.0575 465.455 70.3018 465.455C72.5462 465.455 73.5689 467.415 73.5689 469.602C73.5689 471.79 72.5462 473.722 70.3018 473.722ZM79.4798 468.438C79.4798 466.534 80.6587 465.455 82.2638 465.455C83.8192 465.455 84.7638 466.47 84.7638 468.182V475H86.44V468.068C86.44 465.284 84.9556 463.949 82.7468 463.949C81.0991 463.949 80.0763 464.688 79.565 465.795H79.4229V464.091H77.8036V475H79.4798V468.438ZM90.9801 460.455H89.3892V461.761C89.3892 462.812 88.8778 463.722 88.2812 464.574L89.1903 465.312C90.3267 464.403 90.9801 462.898 90.9801 461.733V460.455ZM98.2315 464.091H95.902V461.477H94.2259V464.091H92.5781V465.511H94.2259V472.33C94.2259 474.233 95.7599 475.142 97.1804 475.142C97.8054 475.142 98.2031 475.028 98.4304 474.943L98.0895 473.438C97.9474 473.466 97.7202 473.523 97.3509 473.523C96.6122 473.523 95.902 473.295 95.902 471.875V465.511H98.2315V464.091ZM108.054 468.438C108.054 466.534 109.268 465.455 110.923 465.455C112.5 465.455 113.452 466.449 113.452 468.182V475H115.128V468.068C115.128 465.263 113.636 463.949 111.406 463.949C109.688 463.949 108.707 464.666 108.196 465.795H108.054V460.455H106.378V475H108.054V468.438ZM122.768 475.227C124.984 475.227 126.603 474.119 127.115 472.472L125.495 472.017C125.069 473.153 124.082 473.722 122.768 473.722C120.801 473.722 119.444 472.45 119.366 470.114H127.285V469.403C127.285 465.341 124.87 463.949 122.598 463.949C119.643 463.949 117.683 466.278 117.683 469.631C117.683 472.983 119.615 475.227 122.768 475.227ZM119.366 468.665C119.48 466.967 120.68 465.455 122.598 465.455C124.416 465.455 125.581 466.818 125.581 468.665H119.366ZM137.562 466.534C137.037 464.986 135.858 463.949 133.699 463.949C131.397 463.949 129.693 465.256 129.693 467.102C129.693 468.608 130.588 469.616 132.591 470.085L134.409 470.511C135.51 470.767 136.028 471.293 136.028 472.045C136.028 472.983 135.034 473.75 133.471 473.75C132.1 473.75 131.241 473.161 130.943 471.989L129.352 472.386C129.743 474.24 131.27 475.227 133.5 475.227C136.035 475.227 137.761 473.842 137.761 471.96C137.761 470.44 136.809 469.482 134.863 469.006L133.244 468.608C131.951 468.288 131.369 467.855 131.369 467.017C131.369 466.08 132.363 465.398 133.699 465.398C135.162 465.398 135.765 466.207 136.056 466.96L137.562 466.534ZM145.028 464.091H142.699V461.477H141.023V464.091H139.375V465.511H141.023V472.33C141.023 474.233 142.557 475.142 143.977 475.142C144.602 475.142 145 475.028 145.227 474.943L144.886 473.438C144.744 473.466 144.517 473.523 144.148 473.523C143.409 473.523 142.699 473.295 142.699 471.875V465.511H145.028V464.091ZM147.55 475H149.226V464.091H147.55V475ZM148.402 462.273C149.055 462.273 149.595 461.761 149.595 461.136C149.595 460.511 149.055 460 148.402 460C147.749 460 147.209 460.511 147.209 461.136C147.209 461.761 147.749 462.273 148.402 462.273ZM155.506 475.256C157.409 475.256 158.404 474.233 158.745 473.523H158.83V475H160.506V467.812C160.506 464.347 157.864 463.949 156.472 463.949C154.824 463.949 152.949 464.517 152.097 466.506L153.688 467.074C154.057 466.278 154.931 465.426 156.529 465.426C158.07 465.426 158.83 466.243 158.83 467.642V467.699C158.83 468.509 158.006 468.438 156.017 468.693C153.993 468.956 151.784 469.403 151.784 471.903C151.784 474.034 153.432 475.256 155.506 475.256ZM155.762 473.75C154.426 473.75 153.461 473.153 153.461 471.989C153.461 470.71 154.625 470.312 155.932 470.142C156.642 470.057 158.546 469.858 158.83 469.517V471.051C158.83 472.415 157.75 473.75 155.762 473.75ZM168.31 464.091H165.98V461.477H164.304V464.091H162.656V465.511H164.304V472.33C164.304 474.233 165.838 475.142 167.259 475.142C167.884 475.142 168.281 475.028 168.509 474.943L168.168 473.438C168.026 473.466 167.798 473.523 167.429 473.523C166.69 473.523 165.98 473.295 165.98 471.875V465.511H168.31V464.091ZM175.288 475.227C177.504 475.227 179.123 474.119 179.634 472.472L178.015 472.017C177.589 473.153 176.602 473.722 175.288 473.722C173.32 473.722 171.964 472.45 171.886 470.114H179.805V469.403C179.805 465.341 177.39 463.949 175.117 463.949C172.163 463.949 170.202 466.278 170.202 469.631C170.202 472.983 172.134 475.227 175.288 475.227ZM171.886 468.665C171.999 466.967 173.2 465.455 175.117 465.455C176.935 465.455 178.1 466.818 178.1 468.665H171.886ZM192.724 464.091H190.394V461.477H188.718V464.091H187.07V465.511H188.718V472.33C188.718 474.233 190.252 475.142 191.673 475.142C192.298 475.142 192.695 475.028 192.923 474.943L192.582 473.438C192.44 473.466 192.212 473.523 191.843 473.523C191.104 473.523 190.394 473.295 190.394 471.875V465.511H192.724V464.091ZM199.56 475.227C202.514 475.227 204.503 472.983 204.503 469.602C204.503 466.193 202.514 463.949 199.56 463.949C196.605 463.949 194.616 466.193 194.616 469.602C194.616 472.983 196.605 475.227 199.56 475.227ZM199.56 473.722C197.315 473.722 196.293 471.79 196.293 469.602C196.293 467.415 197.315 465.455 199.56 465.455C201.804 465.455 202.827 467.415 202.827 469.602C202.827 471.79 201.804 473.722 199.56 473.722ZM217.118 475.227C219.533 475.227 221.124 473.75 221.408 471.818H219.732C219.419 473.011 218.425 473.722 217.118 473.722C215.13 473.722 213.851 472.074 213.851 469.545C213.851 467.074 215.158 465.455 217.118 465.455C218.596 465.455 219.476 466.364 219.732 467.358H221.408C221.124 465.312 219.391 463.949 217.09 463.949C214.135 463.949 212.175 466.278 212.175 469.602C212.175 472.869 214.05 475.227 217.118 475.227ZM228.29 475.227C231.245 475.227 233.233 472.983 233.233 469.602C233.233 466.193 231.245 463.949 228.29 463.949C225.336 463.949 223.347 466.193 223.347 469.602C223.347 472.983 225.336 475.227 228.29 475.227ZM228.29 473.722C226.046 473.722 225.023 471.79 225.023 469.602C225.023 467.415 226.046 465.455 228.29 465.455C230.534 465.455 231.557 467.415 231.557 469.602C231.557 471.79 230.534 473.722 228.29 473.722ZM237.468 468.438C237.468 466.534 238.647 465.455 240.252 465.455C241.808 465.455 242.752 466.47 242.752 468.182V475H244.428V468.068C244.428 465.284 242.944 463.949 240.735 463.949C239.087 463.949 238.065 464.688 237.553 465.795H237.411V464.091H235.792V475H237.468V468.438ZM252.235 464.091H249.906V461.477H248.23V464.091H246.582V465.511H248.23V472.33C248.23 474.233 249.764 475.142 251.184 475.142C251.809 475.142 252.207 475.028 252.434 474.943L252.093 473.438C251.951 473.466 251.724 473.523 251.355 473.523C250.616 473.523 249.906 473.295 249.906 471.875V465.511H252.235V464.091ZM257.967 475.256C259.87 475.256 260.865 474.233 261.206 473.523H261.291V475H262.967V467.812C262.967 464.347 260.325 463.949 258.933 463.949C257.285 463.949 255.41 464.517 254.558 466.506L256.149 467.074C256.518 466.278 257.392 465.426 258.99 465.426C260.531 465.426 261.291 466.243 261.291 467.642V467.699C261.291 468.509 260.467 468.438 258.478 468.693C256.454 468.956 254.245 469.403 254.245 471.903C254.245 474.034 255.893 475.256 257.967 475.256ZM258.223 473.75C256.887 473.75 255.922 473.153 255.922 471.989C255.922 470.71 257.086 470.312 258.393 470.142C259.103 470.057 261.007 469.858 261.291 469.517V471.051C261.291 472.415 260.211 473.75 258.223 473.75ZM270.458 475.227C272.873 475.227 274.464 473.75 274.748 471.818H273.072C272.759 473.011 271.765 473.722 270.458 473.722C268.469 473.722 267.191 472.074 267.191 469.545C267.191 467.074 268.498 465.455 270.458 465.455C271.935 465.455 272.816 466.364 273.072 467.358H274.748C274.464 465.312 272.731 463.949 270.43 463.949C267.475 463.949 265.515 466.278 265.515 469.602C265.515 472.869 267.39 475.227 270.458 475.227ZM281.942 464.091H279.613V461.477H277.937V464.091H276.289V465.511H277.937V472.33C277.937 474.233 279.471 475.142 280.891 475.142C281.516 475.142 281.914 475.028 282.141 474.943L281.8 473.438C281.658 473.466 281.431 473.523 281.062 473.523C280.323 473.523 279.613 473.295 279.613 471.875V465.511H281.942V464.091ZM290.089 475H291.765V468.182C291.765 466.584 292.93 465.455 294.237 465.455C295.508 465.455 296.396 466.286 296.396 467.528V475H298.1V467.898C298.1 466.491 298.981 465.455 300.515 465.455C301.708 465.455 302.731 466.087 302.731 467.699V475H304.407V467.699C304.407 465.135 303.029 463.949 301.083 463.949C299.521 463.949 298.377 464.666 297.816 465.795H297.702C297.163 464.631 296.211 463.949 294.776 463.949C293.356 463.949 292.305 464.631 291.85 465.795H291.708V464.091H290.089V475ZM312.045 475.227C314.261 475.227 315.881 474.119 316.392 472.472L314.773 472.017C314.347 473.153 313.359 473.722 312.045 473.722C310.078 473.722 308.722 472.45 308.643 470.114H316.562V469.403C316.562 465.341 314.148 463.949 311.875 463.949C308.92 463.949 306.96 466.278 306.96 469.631C306.96 472.983 308.892 475.227 312.045 475.227ZM308.643 468.665C308.757 466.967 309.957 465.455 311.875 465.455C313.693 465.455 314.858 466.818 314.858 468.665H308.643ZM320.334 475.114C321.037 475.114 321.612 474.538 321.612 473.835C321.612 473.132 321.037 472.557 320.334 472.557C319.631 472.557 319.055 473.132 319.055 473.835C319.055 474.538 319.631 475.114 320.334 475.114Z" fill="#172B4D"/>
<path d="M264.964 556C269.661 556 272.583 552.539 272.583 548.074C272.583 546.391 272.309 544.871 270.398 544.414C270.863 543.141 272.205 539.457 272.205 538.277C272.205 537.238 271.58 536.368 270.466 536.368C268.69 536.368 267.098 541.512 266.6 542.738C266.214 541.625 264.407 536 262.815 536C261.577 536 260.997 536.894 260.997 538.019C260.997 539.398 262.357 542.972 262.851 544.347C262.601 544.257 262.33 544.179 262.054 544.179C261.122 544.179 260.132 545.316 260.132 546.234C260.132 546.582 260.327 547.07 260.45 547.394C258.982 547.785 258.417 548.746 258.417 550.195C258.412 553.015 261.136 556 264.964 556ZM268.989 540.219C269.149 539.738 269.829 537.707 270.466 537.707C270.808 537.707 270.9 538.055 270.9 538.332C270.9 539.078 269.364 543.2 269.025 544.113L267.672 543.879L268.989 540.219ZM262.247 537.888V537.887C262.247 537.422 262.824 536.102 264.089 539.727L265.467 543.645C264.846 543.594 264.364 543.527 264.058 543.7C263.624 542.575 262.247 539.024 262.247 537.888ZM262.155 545.531L262.156 545.532C263.322 545.532 264.827 549.227 264.827 549.727C264.827 549.926 264.632 550.172 264.405 550.172C263.572 550.172 261.343 547.167 261.343 546.355C261.347 546.054 261.848 545.531 262.155 545.531ZM260.815 548.589C261.268 548.589 262.976 550.945 262.976 551.445C262.976 551.637 262.669 551.769 262.511 551.769C261.87 551.769 261.619 551.163 260.477 549.762C259.295 550.922 261.293 553.156 262.798 553.156C263.837 553.156 264.513 552.211 264.311 551.515C264.458 551.515 264.641 551.527 264.777 551.492C264.821 552.55 265.139 553.812 266.437 553.902C266.437 553.867 266.517 553.624 266.517 553.612C266.517 552.932 266.095 552.339 266.095 551.648C266.095 550.542 266.958 549.472 267.834 548.847C268.152 548.613 268.539 548.467 268.912 548.335C269.299 548.191 269.709 548.023 270.002 547.733C269.958 547.296 269.776 546.909 269.33 546.909C268.227 546.909 264.53 547.066 264.53 545.358C264.53 545.097 264.534 544.847 265.223 544.847C266.509 544.847 269.773 545.159 270.728 545.983C271.448 546.612 271.696 550.405 269.494 552.808L269.492 552.808C268.333 554.058 266.852 554.707 265.125 554.707C262.761 554.707 260.893 553.433 259.994 551.257C259.313 549.562 260.146 548.589 260.815 548.589ZM265.566 547.886C265.953 548.007 266.351 548.043 266.749 548.121C266.454 548.332 266.192 548.59 265.941 548.867C265.829 548.535 265.693 548.211 265.566 547.886Z" fill="#505F79"/>
<path d="M199.821 539.88L201.417 538.338V538H195.888L191.948 547.91L187.466 538H181.669V538.338L183.533 540.605C183.715 540.773 183.81 541.018 183.786 541.265V550.177C183.843 550.498 183.74 550.828 183.517 551.061L181.417 553.633V553.966H187.371V553.629L185.271 551.061C185.043 550.827 184.936 550.503 184.982 550.177V542.468L190.208 553.971H190.816L195.31 542.468V551.631C195.31 551.873 195.31 551.923 195.153 552.081L193.537 553.661V554H201.38V553.662L199.822 552.12C199.685 552.016 199.614 551.841 199.643 551.671V540.33C199.614 540.159 199.684 539.984 199.821 539.88Z" fill="#505F79"/>
<path d="M155.061 539.034C151.572 539.034 148.705 541.862 148.705 545.379V555.31C148.705 555.689 149.016 556 149.396 556H152.988C153.368 556 153.679 555.689 153.679 555.31V545.655C153.679 544.896 154.301 544.276 155.061 544.276C155.821 544.276 156.443 544.896 156.443 545.655V555.31C156.443 555.689 156.754 556 157.134 556H160.726C161.106 556 161.417 555.689 161.417 555.31V545.379C161.417 541.896 158.584 539.034 155.061 539.034Z" fill="#505F79"/>
<path d="M143.904 536C142.522 536 141.417 537.103 141.417 538.483C141.417 539.862 142.522 540.966 143.904 540.966C145.285 540.966 146.391 539.862 146.391 538.483C146.391 537.103 145.285 536 143.904 536Z" fill="#505F79"/>
<path d="M145.7 542.275H142.108C141.728 542.275 141.417 542.586 141.417 542.965V555.31C141.417 555.689 141.728 556 142.108 556H145.7C146.08 556 146.391 555.689 146.391 555.31V542.965C146.391 542.586 146.08 542.275 145.7 542.275Z" fill="#505F79"/>
<path d="M239.402 543.461C239.402 542.321 239.036 541.25 238.337 540.318C238.603 539.42 238.67 538.28 238.603 536.967C238.57 536.415 238.138 536 237.605 536C237.306 536 234.777 536.035 233.313 537.382C232.049 537.14 230.718 537.14 229.42 537.382C227.99 536.035 225.461 536 225.128 536C224.596 536 224.163 536.415 224.13 536.967C224.03 538.28 224.13 539.42 224.396 540.318C223.698 541.285 223.332 542.356 223.332 543.461C223.332 545.879 225.128 548.055 227.857 549.092C227.757 549.299 227.69 549.541 227.624 549.782C224.729 549.472 223.365 546.743 223.298 546.639C223.065 546.121 222.467 545.914 221.967 546.19C221.468 546.432 221.269 547.054 221.535 547.572C221.601 547.744 223.431 551.44 227.457 551.855V554.964C227.457 555.551 227.89 556 228.455 556H234.278C234.844 556 235.276 555.551 235.276 554.964V550.853C235.276 550.231 235.143 549.644 234.91 549.126C237.605 548.055 239.402 545.914 239.402 543.461Z" fill="#505F79"/>
<path d="M122.175 536.394C121.842 535.996 121.275 535.896 120.842 536.195L118.909 537.524C118.009 536.561 116.742 536.029 115.375 536.029C112.675 536.029 110.442 538.222 110.442 540.946C110.442 541.345 110.475 541.71 110.575 542.075C108.242 541.577 106.842 539.883 106.309 536.826C106.242 536.428 105.942 536.129 105.542 536.029C105.175 535.929 104.775 536.095 104.542 536.394C104.475 536.461 98.9753 544.102 106.942 550.58C106.175 552.208 103.875 553.604 102.975 554.069C102.542 554.268 102.342 554.733 102.442 555.198C102.542 555.663 102.942 555.962 103.409 555.962H105.142C115.275 555.962 119.875 550.946 119.975 539.717L122.075 537.723C122.475 537.391 122.509 536.793 122.175 536.394Z" fill="#505F79"/>
<rect x="168" y="618" width="40" height="40" rx="20" fill="white"/>
<path fill-rule="evenodd" clip-rule="evenodd" d="M181.293 634.293C181.683 633.902 182.317 633.902 182.707 634.293L188 639.586L193.293 634.293C193.683 633.902 194.317 633.902 194.707 634.293C195.098 634.683 195.098 635.317 194.707 635.707L188.707 641.707C188.317 642.098 187.683 642.098 187.293 641.707L181.293 635.707C180.902 635.317 180.902 634.683 181.293 634.293Z" fill="#172B4D"/>
<rect x="168" y="618" width="40" height="40" rx="20" stroke="#DFE1E6"/>
</svg>
